# xmcd
#
# Track frame offsets: 
#        150
#        15944
#        34683
#        54082
#        73203
#        92988
#        109802
#        126737
#        147521
#        164417
#
# Disc length: 2394 seconds
#
# Revision: 0
# Processed by: cddbd v1.5.2PL0 Copyright (c) Steve Scherf et al.
# Submitted via: ExactAudioCopy v0.99pb3
#
DISCID=8d09580a
DTITLE=Deacons - Straight Up
DYEAR=1999
DGENRE=Blues
TTITLE0=Bloodshot Eyes
TTITLE1=What Have I Done
TTITLE2=Who Will The Next Fool Be
TTITLE3=Change In You
TTITLE4=One Way Or Another
TTITLE5=Worried Over You
TTITLE6=Wish You Were Mine
TTITLE7=Double Parked
TTITLE8=Sufferin' With The Blues
TTITLE9=She's Gone
EXTD=
EXTT0=
EXTT1=
EXTT2=
EXTT3=
EXTT4=
EXTT5=
EXTT6=
EXTT7=
EXTT8=
EXTT9=
PLAYORDER=
